<!DOCTYPE svg PUBLIC "-//W3C//DTD SVG 20010904//EN" "http://www.w3.org/TR/2001/REC-SVG-20010904/DTD/svg10.dtd">
<svg version="1.0" xmlns="http://www.w3.org/2000/svg" width="507px" height="126px" viewBox="0 0 5070 1260" preserveAspectRatio="xMidYMid meet">
<g id="layer1" fill="#ffffff" stroke="none">
 <path d="M0 630 l0 -630 2535 0 2535 0 0 630 0 630 -2535 0 -2535 0 0 -630z m4891 567 c24 -13 58 -43 74 -66 l30 -43 0 -463 0 -463 -30 -43 c-16 -23 -50 -53 -74 -66 l-44 -23 -2297 0 -2297 0 -44 23 c-24 13 -57 43 -74 66 l-30 43 0 463 0 463 30 43 c17 23 50 53 74 66 l44 23 2297 0 2297 0 44 -23z"/>
 <path d="M225 1191 c-48 -22 -79 -54 -100 -103 -13 -32 -15 -101 -15 -465 0 -395 2 -431 19 -468 22 -48 54 -79 103 -100 33 -13 282 -15 2318 -15 2036 0 2285 2 2318 15 49 21 81 52 103 100 17 37 19 73 19 470 0 397 -2 433 -19 470 -22 48 -54 79 -103 100 -33 13 -282 15 -2320 15 -2198 0 -2284 -1 -2323 -19z m97 -218 c16 -15 18 -37 19 -252 0 -137 4 -228 9 -216 4 11 32 115 61 230 58 227 72 255 127 255 59 0 68 -18 131 -265 l59 -230 1 212 c1 205 8 258 34 275 22 14 57 8 77 -12 19 -19 20 -33 20 -324 0 -304 0 -305 -22 -320 -28 -20 -146 -22 -171 -4 -10 8 -35 84 -67 203 -28 105 -53 199 -57 210 -3 12 -26 -58 -60 -185 -30 -113 -62 -213 -70 -222 -21 -24 -138 -25 -171 -2 -22 15 -22 16 -22 321 0 271 2 309 17 325 20 22 61 23 85 1z m1008 -3 c19 -19 20 -33 20 -235 0 -208 -1 -215 -22 -235 -30 -28 -62 -25 -88 7 -20 26 -21 36 -18 241 3 198 4 215 22 228 28 20 63 17 86 -6z m460 -35 c14 -28 30 -65 37 -83 l11 -32 134 0 134 0 24 66 c14 36 33 74 43 85 38 40 107 12 107 -45 0 -49 -215 -575 -246 -604 -27 -24 -81 -30 -115 -12 -10 6 -25 23 -33 38 -19 38 -212 532 -219 563 -10 40 26 81 67 77 26 -3 35 -11 56 -53z m1619 29 c19 -24 21 -40 21 -150 l0 -124 30 0 c77 0 120 39 213 194 60 100 80 115 132 102 14 -4 31 -18 37 -31 10 -21 6 -36 -27 -101 -20 -42 -59 -99 -86 -127 -27 -28 -49 -51 -49 -52 0 -1 17 -7 38 -13 21 -6 53 -27 72 -47 30 -31 35 -42 38 -101 6 -88 -16 -136 -77 -172 -45 -26 -51 -27 -233 -30 -178 -3 -187 -3 -207 17 -20 20 -21 31 -21 321 0 287 1 301 20 320 29 29 74 26 99 -6z m900 0 c19 -24 21 -40 21 -150 l0 -124 30 0 c77 0 120 39 213 194 60 100 80 115 132 102 14 -4 31 -18 37 -31 10 -21 6 -36 -27 -101 -20 -42 -59 -99 -86 -127 -27 -28 -49 -51 -49 -52 0 -1 17 -7 38 -13 21 -6 53 -27 72 -47 30 -31 35 -42 38 -101 6 -88 -16 -136 -77 -172 -45 -26 -51 -27 -233 -30 -178 -3 -187 -3 -207 17 -20 20 -21 31 -21 321 0 287 1 301 20 320 29 29 74 26 99 -6z m-1553 -9 c6 -14 8 -14 18 1 15 20 55 15 70 -8 8 -13 6 -21 -7 -36 -24 -26 -26 -312 -2 -332 9 -7 14 -21 13 -31 -4 -22 148 -179 173 -179 22 0 43 -26 35 -45 -15 -39 -71 -27 -71 16 0 17 -24 47 -81 102 -45 42 -88 77 -97 77 -9 0 -22 7 -30 15 -13 13 -16 13 -21 0 -3 -8 -16 -15 -28 -15 -15 0 -49 -27 -100 -77 -60 -60 -78 -84 -78 -106 0 -31 -24 -46 -49 -30 -23 14 -20 45 5 58 12 6 58 44 103 85 62 58 81 81 81 102 0 15 5 30 10 33 17 10 12 306 -5 329 -10 13 -11 24 -4 37 12 23 57 25 65 4z m-83 -356 c15 -23 1 -49 -25 -49 -30 0 -162 -131 -163 -161 0 -41 -57 -52 -71 -14 -8 20 13 45 37 45 27 0 161 133 154 152 -7 19 22 50 43 46 8 -2 19 -10 25 -19z m242 7 c10 -7 16 -20 12 -28 -6 -18 127 -154 157 -160 31 -5 44 -35 23 -55 -22 -22 -50 -8 -55 27 -5 31 -141 159 -169 160 -30 0 -42 39 -17 57 22 16 26 16 49 -1z m-1587 -192 c14 -9 22 -26 22 -43 0 -59 -57 -87 -103 -51 -68 54 10 144 81 94z m1518 -38 c26 -26 34 -42 34 -71 0 -52 -53 -105 -105 -105 -52 0 -105 53 -105 105 0 29 8 45 34 71 47 47 95 47 142 0z"/>
 <path d="M1880 713 c0 -14 85 -253 90 -253 6 0 90 230 90 248 0 9 -25 12 -90 12 -49 0 -90 -3 -90 -7z"/>
 <path d="M3430 499 l0 -92 99 5 c109 5 144 20 161 64 15 37 1 73 -34 95 -25 15 -50 19 -128 19 l-98 0 0 -91z"/>
 <path d="M4330 499 l0 -92 99 5 c109 5 144 20 161 64 15 37 1 73 -34 95 -25 15 -50 19 -128 19 l-98 0 0 -91z"/>
 <path d="M2748 908 c-16 -16 -18 -38 -18 -163 0 -125 2 -147 18 -162 16 -17 18 -17 35 0 15 15 17 37 17 165 0 128 -2 150 -17 162 -16 14 -20 13 -35 -2z"/>
 </g>
<g id="layer2" fill="#105aae" stroke="none">
 <path d="M242 974 c-22 -15 -22 -16 -22 -324 0 -308 0 -309 22 -324 27 -19 122 -21 158 -3 17 9 29 27 37 57 6 25 24 90 38 145 15 55 33 127 42 160 8 33 16 61 18 63 4 4 34 -102 75 -261 43 -167 51 -177 138 -177 114 1 107 -21 107 341 0 299 -1 311 -20 325 -22 17 -74 12 -87 -9 -4 -6 -8 -112 -8 -234 0 -122 -4 -224 -8 -227 -4 -2 -29 82 -56 189 -26 106 -54 210 -61 231 -21 62 -87 83 -128 42 -16 -17 -36 -78 -76 -233 -29 -115 -57 -219 -61 -230 -5 -11 -9 81 -9 216 -1 215 -3 237 -19 252 -23 21 -51 22 -80 1z"/>
 <path d="M1247 978 c-14 -11 -17 -41 -18 -236 -1 -243 1 -252 55 -252 62 0 61 -2 61 239 0 201 -2 221 -19 240 -21 24 -54 27 -79 9z"/>
 <path d="M1681 964 c-24 -30 -22 -45 19 -149 16 -38 58 -146 95 -240 92 -236 96 -245 122 -262 30 -20 99 -12 123 14 9 10 34 61 54 113 36 92 46 114 79 190 49 111 107 271 107 294 0 39 -35 69 -72 62 -38 -7 -48 -21 -79 -102 l-23 -64 -133 0 -133 0 -16 38 c-47 111 -58 127 -90 130 -25 2 -36 -3 -53 -24z m376 -271 c-8 -42 -81 -233 -89 -233 -4 0 -14 21 -22 48 -23 76 -56 166 -66 183 -5 9 -6 20 -3 23 4 3 47 6 96 6 l89 0 -5 -27z"/>
 <path d="M3323 980 c-31 -13 -35 -55 -31 -368 3 -260 4 -274 23 -289 16 -12 52 -14 200 -11 166 3 184 5 229 27 65 32 90 85 84 177 -3 56 -8 68 -38 99 -19 20 -51 41 -72 47 -43 13 -47 22 -18 38 28 15 118 146 131 191 17 56 6 87 -35 94 -19 4 -42 2 -52 -3 -11 -6 -52 -64 -92 -130 -64 -105 -78 -123 -117 -142 -26 -12 -58 -20 -77 -18 l-33 3 -3 130 c-2 102 -6 133 -19 147 -17 19 -45 22 -80 8z m326 -405 c59 -30 63 -98 8 -139 -23 -17 -43 -20 -129 -20 l-103 -1 -3 79 c-2 44 -1 84 1 90 7 18 188 11 226 -9z"/>
 <path d="M4223 980 c-31 -13 -35 -55 -31 -368 3 -260 4 -274 23 -289 16 -12 52 -14 200 -11 166 3 184 5 229 27 65 32 90 85 84 177 -3 56 -8 68 -38 99 -19 20 -51 41 -72 47 -43 13 -47 22 -18 38 28 15 118 146 131 191 17 56 6 87 -35 94 -19 4 -42 2 -52 -3 -11 -6 -52 -64 -92 -130 -64 -105 -78 -123 -117 -142 -26 -12 -58 -20 -77 -18 l-33 3 -3 130 c-2 102 -6 133 -19 147 -17 19 -45 22 -80 8z m326 -405 c59 -30 63 -98 8 -139 -23 -17 -43 -20 -129 -20 l-103 -1 -3 79 c-2 44 -1 84 1 90 7 18 188 11 226 -9z"/>
 <path d="M2628 602 c-21 -24 -12 -52 18 -52 19 0 24 5 24 24 0 35 -23 51 -42 28z"/>
 <path d="M2876 605 c-23 -17 -15 -42 17 -54 12 -5 29 -16 37 -26 7 -9 22 -21 32 -26 19 -10 19 -10 2 16 -9 14 -25 30 -35 35 -10 6 -15 17 -12 28 7 28 -18 44 -41 27z"/>
 <path d="M1240 410 c-24 -24 -19 -66 12 -92 27 -24 44 -23 74 8 20 19 24 31 19 52 -9 36 -18 44 -54 48 -22 3 -38 -3 -51 -16z"/>
 <path d="M2455 413 c-11 -3 -26 -10 -33 -15 -17 -15 3 -38 34 -38 21 0 24 4 22 30 -1 17 -2 29 -3 29 0 -1 -9 -4 -20 -6z"/>
 <path d="M3067 403 c-14 -14 -7 -43 11 -43 24 0 42 19 35 36 -5 15 -35 19 -46 7z"/>
 </g>
<g id="layer3" fill="#456baf" stroke="none">
 <path d="M209 1197 c-24 -13 -57 -43 -74 -66 l-30 -43 0 -463 0 -463 30 -43 c17 -23 50 -53 74 -66 l44 -23 2297 0 2297 0 44 23 c24 13 58 43 74 66 l30 43 0 463 0 463 -30 43 c-16 23 -50 53 -74 66 l-44 23 -2297 0 -2297 0 -44 -23z m4659 -2 c49 -21 81 -52 103 -100 17 -37 19 -73 19 -470 0 -397 -2 -433 -19 -470 -22 -48 -54 -79 -103 -100 -33 -13 -282 -15 -2318 -15 -2036 0 -2285 2 -2318 15 -49 21 -81 52 -103 100 -17 37 -19 73 -19 468 0 364 2 433 15 465 21 49 52 81 100 103 39 18 125 19 2323 19 2038 0 2287 -2 2320 -15z"/>
 <path d="M3841 934 c0 -11 3 -14 6 -6 3 7 2 16 -1 19 -3 4 -6 -2 -5 -13z"/>
 <path d="M4741 934 c0 -11 3 -14 6 -6 3 7 2 16 -1 19 -3 4 -6 -2 -5 -13z"/>
 <path d="M1224 745 c0 -110 2 -156 3 -103 2 53 2 143 0 200 -1 57 -3 13 -3 -97z"/>
 <path d="M3424 820 c0 -69 1 -97 3 -62 2 34 2 90 0 125 -2 34 -3 6 -3 -63z"/>
 <path d="M4324 820 c0 -69 1 -97 3 -62 2 34 2 90 0 125 -2 34 -3 6 -3 -63z"/>
 <path d="M734 720 c0 -118 2 -167 3 -108 2 60 2 156 0 216 -1 59 -3 10 -3 -108z"/>
 <path d="M2690 916 c0 -2 8 -10 18 -17 15 -13 16 -12 3 4 -13 16 -21 21 -21 13z"/>
 <path d="M2615 604 c-9 -9 -13 -24 -10 -34 4 -13 -6 -28 -34 -51 -22 -17 -38 -35 -36 -40 3 -4 -4 -11 -15 -14 -12 -4 -26 -17 -32 -29 -7 -16 -16 -22 -32 -19 -14 3 -28 -2 -36 -14 -12 -15 -12 -16 0 -5 22 19 50 14 61 -10 9 -22 9 -22 5 -2 -3 17 14 39 66 90 48 49 68 75 66 90 -2 12 3 29 11 38 17 21 7 21 -14 0z"/>
 <path d="M2656 610 c7 -8 14 -24 17 -35 4 -19 5 -19 6 1 0 12 -7 28 -16 35 -16 12 -17 12 -7 -1z"/>
 <path d="M2868 608 c-17 -15 -33 -53 -18 -43 6 3 10 1 10 -4 0 -6 5 -11 10 -11 6 0 5 8 -2 20 -11 16 -9 22 7 34 11 9 17 16 14 16 -3 0 -12 -6 -21 -12z"/>
 <path d="M2915 584 c2 -32 10 -39 13 -9 1 13 -2 26 -6 29 -4 2 -7 -6 -7 -20z"/>
 <path d="M2699 583 c-13 -16 -12 -17 4 -4 16 13 21 21 13 21 -2 0 -10 -8 -17 -17z"/>
 <path d="M3424 587 c-3 -8 -4 -49 -2 -93 l3 -79 5 93 c5 92 4 104 -6 79z"/>
 <path d="M4324 587 c-3 -8 -4 -49 -2 -93 l3 -79 5 93 c5 92 4 104 -6 79z"/>
 <path d="M2964 505 c1 -9 21 -34 44 -55 26 -23 42 -46 43 -61 0 -21 1 -22 8 -5 4 11 16 23 27 27 19 7 19 8 -1 8 -11 1 -43 24 -72 53 -32 32 -51 44 -49 33z"/>
 <path d="M1273 483 c9 -2 23 -2 30 0 6 3 -1 5 -18 5 -16 0 -22 -2 -12 -5z"/>
 <path d="M2609 453 c-13 -16 -12 -17 4 -4 16 13 21 21 13 21 -2 0 -10 -8 -17 -17z"/>
 <path d="M2920 425 c19 -19 36 -35 39 -35 3 0 -10 16 -29 35 -19 19 -36 35 -39 35 -3 0 10 -16 29 -35z"/>
 <path d="M2544 388 l-19 -23 23 19 c12 11 22 21 22 23 0 8 -8 2 -26 -19z"/>
 <path d="M2704 376 c-26 -26 -34 -42 -34 -71 0 -52 53 -105 105 -105 52 0 105 53 105 105 0 29 -8 45 -34 71 -47 47 -95 47 -142 0z m137 -5 c21 -22 29 -39 29 -66 0 -51 -44 -95 -95 -95 -51 0 -95 44 -95 95 0 51 44 95 95 95 27 0 44 -8 66 -29z"/>
 <path d="M2419 368 c7 -10 23 -17 35 -17 20 1 20 2 1 6 -11 3 -27 10 -35 17 -13 10 -13 9 -1 -6z"/>
 <path d="M3090 364 c-17 -9 -20 -14 -9 -14 9 0 22 7 29 15 15 18 13 18 -20 -1z"/>
 <path d="M1221 354 c0 -11 3 -14 6 -6 3 7 2 16 -1 19 -3 4 -6 -2 -5 -13z"/>
 <path d="M2981 334 c0 -11 3 -14 6 -6 3 7 2 16 -1 19 -3 4 -6 -2 -5 -13z"/>
 </g>
<g id="layer4" fill="#1e0959" stroke="none">
 <path d="M2697 952 c-16 -18 -16 -20 3 -37 18 -17 20 -31 20 -170 0 -125 -3 -155 -15 -165 -9 -7 -14 -21 -13 -30 4 -21 -143 -170 -184 -188 -32 -13 -36 -37 -9 -51 25 -14 57 9 47 34 -5 14 13 37 81 101 48 46 96 83 106 84 11 0 17 8 17 25 0 14 -4 25 -10 25 -6 0 -10 62 -10 165 0 110 4 165 11 165 16 0 6 54 -12 58 -8 1 -23 -6 -32 -16z"/>
 <path d="M2793 963 c-19 -7 -16 -50 3 -57 20 -8 44 11 44 34 0 14 -23 34 -33 29 -1 0 -8 -3 -14 -6z"/>
 <path d="M2802 738 c-1 -97 -6 -158 -12 -158 -5 0 -10 -11 -10 -25 0 -19 5 -25 22 -25 29 0 199 -166 191 -187 -5 -14 13 -43 28 -43 11 0 39 29 39 41 0 6 -15 16 -32 24 -51 21 -188 152 -188 180 0 12 -7 28 -15 35 -11 9 -15 45 -18 164 l-3 151 -2 -157z"/>
 <path d="M2731 386 c-13 -7 -30 -24 -37 -37 -51 -92 72 -183 146 -109 43 43 32 118 -21 145 -34 18 -57 18 -88 1z"/>
 </g>
<g id="layer5" fill="#483579" stroke="none">
 <path d="M2774 955 c-4 -8 -10 -12 -15 -9 -5 3 -9 -2 -9 -11 0 -9 4 -14 9 -11 5 4 12 0 14 -6 3 -7 6 -1 6 14 1 14 7 29 14 31 9 4 9 6 -1 6 -7 1 -15 -6 -18 -14z"/>
 <path d="M2798 899 c8 -9 12 -56 12 -160 0 -128 2 -148 18 -160 14 -11 15 -11 5 1 -9 10 -13 59 -13 166 0 135 -2 153 -17 159 -15 5 -16 4 -5 -6z"/>
 <path d="M2714 745 c0 -82 2 -115 3 -72 2 43 2 110 0 150 -1 40 -3 5 -3 -78z"/>
 <path d="M2774 575 c-4 -8 -10 -12 -15 -9 -5 3 -9 -2 -9 -11 0 -9 4 -14 9 -11 5 4 12 0 14 -6 3 -7 6 -1 6 14 1 14 7 29 14 31 9 4 9 6 -1 6 -7 1 -15 -6 -18 -14z"/>
 <path d="M2718 523 c7 -3 16 -2 19 1 4 3 -2 6 -13 5 -11 0 -14 -3 -6 -6z"/>
 <path d="M2805 523 c11 -3 35 -19 53 -36 17 -17 32 -27 32 -22 0 5 15 -4 33 -21 17 -16 12 -8 -12 18 -24 26 -48 45 -52 43 -3 -3 -12 2 -19 10 -7 8 -22 14 -34 14 -20 -1 -20 -2 -1 -6z m76 -40 c13 -16 12 -17 -3 -4 -17 13 -22 21 -14 21 2 0 10 -8 17 -17z"/>
 <path d="M2573 413 c4 -3 -3 -18 -15 -32 l-23 -26 27 24 c24 21 29 41 11 41 -4 0 -3 -3 0 -7z"/>
 </g>

</svg>