<?xml version="1.0" encoding="UTF-8" standalone="no"?>
<svg
   viewBox="0 0 151.18111 151.1811"
   height="40mm"
   width="40mm"
   xml:space="preserve"
   id="svg2"
   version="1.1"
   sodipodi:docname="AIRR_logo_outlined_logo-only_dark.svg"
   inkscape:version="1.3 (0e150ed6c4, 2023-07-21)"
   xmlns:inkscape="http://www.inkscape.org/namespaces/inkscape"
   xmlns:sodipodi="http://sodipodi.sourceforge.net/DTD/sodipodi-0.dtd"
   xmlns="http://www.w3.org/2000/svg"
   xmlns:svg="http://www.w3.org/2000/svg"
   xmlns:rdf="http://www.w3.org/1999/02/22-rdf-syntax-ns#"
   xmlns:cc="http://creativecommons.org/ns#"
   xmlns:dc="http://purl.org/dc/elements/1.1/"><sodipodi:namedview
     id="namedview1"
     pagecolor="#000000"
     bordercolor="#666666"
     borderopacity="1.0"
     inkscape:showpageshadow="2"
     inkscape:pageopacity="0.0"
     inkscape:pagecheckerboard="0"
     inkscape:deskcolor="#d1d1d1"
     inkscape:zoom="3.3373984"
     inkscape:cx="174.0877"
     inkscape:cy="111.01462"
     inkscape:window-width="2560"
     inkscape:window-height="1372"
     inkscape:window-x="0"
     inkscape:window-y="0"
     inkscape:window-maximized="1"
     inkscape:current-layer="svg2"
     inkscape:document-units="mm" /><metadata
     id="metadata8"><rdf:RDF><cc:Work
         rdf:about=""><dc:format>image/svg+xml</dc:format><dc:type
           rdf:resource="http://purl.org/dc/dcmitype/StillImage" /></cc:Work></rdf:RDF></metadata><defs
     id="defs6"><clipPath
       id="clipPath22"
       clipPathUnits="userSpaceOnUse"><path
         id="path20"
         d="M 0,223 H 369 V 0 H 0 Z" /></clipPath></defs><g
     style="display:inline;image-rendering:auto"
     transform="matrix(1.3333333,0,0,-1.3333333,-58.005128,261.61206)"
     id="g10"
     inkscape:label="logo">&#10;&#10;<g
   id="g858"
   style="display:inline"
   inkscape:label="circle"><path
     id="path30"
     transform="matrix(0.75000002,0,0,-0.75000002,0,223)"
     d="m 168.08789,73.669922 -5.56836,6.199219 c 4.55541,2.109184 8.76144,5.006625 12.41797,8.664062 8.16533,8.164 12.66778,19.017357 12.67578,30.554687 0.006,9.27482 -2.89781,18.09588 -8.26953,25.43555 v 12.00195 c 0.43786,-0.40804 0.87222,-0.82358 1.29883,-1.25 9.664,-9.664 14.98003,-22.51736 14.9707,-36.19336 -0.0107,-13.67333 -5.34291,-26.531744 -15.01758,-36.205077 -3.73816,-3.738887 -7.9546,-6.823128 -12.50781,-9.207031 z"
     style="fill:#008aff;fill-opacity:1;fill-rule:nonzero;stroke:none;stroke-width:1.33333"
     inkscape:label="sector right" /><path
     id="path26"
     transform="matrix(0.75000002,0,0,-0.75000002,0,223)"
     d="m 108.18555,82.837891 c -9.659133,9.662888 -14.972224,22.512219 -14.962894,36.183589 0.01067,13.67467 5.344862,26.53104 15.019534,36.20704 9.88385,9.88253 22.82696,14.87345 35.80078,14.98437 v -7.99414 c -10.9239,-0.11033 -21.81942,-4.32527 -30.14258,-12.64844 -8.16533,-8.16533 -12.66778,-19.01734 -12.67578,-30.55469 -0.005,-8.48726 2.43186,-16.59184 6.96094,-23.531245 z"
     style="display:inline;fill:#008aff;fill-opacity:1;fill-rule:nonzero;stroke:none;stroke-width:1.33333"
     inkscape:label="sector left" /></g><g
   id="g850"
   style="display:inline"
   inkscape:label="TCR"><path
     d="m 129.6177,126.2441 c -0.312,0 -0.565,-0.238 -0.565,-0.531 v -3.146 c 0,-3.576 -1.989,-4.602 -5.694,-4.689 -0.307,-0.008 -0.554,-0.242 -0.554,-0.531 v -32.519 c 0,-0.294 0.253,-0.532 0.565,-0.532 h 9.419 c 0.312,0 0.565,0.238 0.565,0.532 v 40.885 c 0,0.293 -0.253,0.531 -0.565,0.531 z"
     style="fill:#ffffff;fill-opacity:1;fill-rule:nonzero;stroke:none"
     id="path38"
     inkscape:label="chain right" /><path
     d="m 113.1167,126.2441 c 0.312,0 0.565,-0.238 0.565,-0.531 v -3.146 c 0,-3.576 1.989,-4.602 5.694,-4.689 0.307,-0.008 0.554,-0.242 0.554,-0.531 v -32.519 c 0,-0.294 -0.253,-0.532 -0.565,-0.532 h -9.419 c -0.312,0 -0.566,0.238 -0.566,0.532 v 40.885 c 0,0.293 0.254,0.531 0.566,0.531 z"
     style="display:inline;fill:#ffffff;fill-opacity:1;fill-rule:nonzero;stroke:none"
     id="path34"
     inkscape:label="chain left" /></g><g
   style="display:inline"
   id="g870"
   inkscape:label="antibody"><path
     d="m 133.9976,179.2158 -2.885,2.746 -0.168,-0.187 c -1.967,-2.209 -5.385,-2.408 -7.593,-0.44 l -0.125,0.11 -13.364,-14.933 c -0.255,-0.283 -0.236,-0.719 0.043,-0.98 l 6.432,-6.012 c 0.288,-0.269 0.74,-0.248 1.002,0.045 l 16.698,18.675 c 0.252,0.283 0.234,0.715 -0.04,0.976"
     style="fill:#ffffff;fill-opacity:1;fill-rule:nonzero;stroke:none"
     id="path54"
     inkscape:label="light chain right" /><path
     d="m 64.6724,181.4453 -0.125,-0.11 c -2.208,-1.968 -5.626,-1.77 -7.593,0.439 l -0.168,0.188 -2.885,-2.746 c -0.274,-0.261 -0.292,-0.694 -0.04,-0.976 l 16.698,-18.676 c 0.262,-0.293 0.714,-0.313 1.002,-0.045 l 6.432,6.013 c 0.278,0.261 0.298,0.696 0.043,0.979 z"
     style="fill:#ffffff;fill-opacity:1;fill-rule:nonzero;stroke:none"
     id="path46"
     inkscape:label="light chain left" /><path
     d="m 121.2319,183.5439 -0.245,0.219 c -2.21,1.968 -2.407,5.385 -0.44,7.594 l 0.524,0.588 -2.691,2.581 c -0.304,0.292 -0.789,0.278 -1.074,-0.033 l -20.927,-22.762 c -0.49,-0.551 -0.702,-0.913 -0.716,-1.869 v -49.233 c 0,-0.416 0.337,-0.752 0.753,-0.752 h 8.729 c 0.415,0 0.752,0.336 0.752,0.752 v 44.441 c -0.019,0.818 -0.019,1.243 0.828,2.244 z"
     style="display:inline;fill:#ffffff;fill-opacity:1;fill-rule:nonzero;stroke:none"
     id="path50"
     inkscape:label="heavy chain right" /><path
     d="m 70.9551,194.4932 c -0.286,0.311 -0.77,0.325 -1.074,0.033 l -2.691,-2.581 0.524,-0.588 c 1.968,-2.21 1.77,-5.627 -0.44,-7.594 l -0.245,-0.219 14.507,-16.231 c 0.848,-1 0.848,-1.425 0.828,-2.243 v -44.441 c 0,-0.416 0.337,-0.753 0.753,-0.753 h 8.729 c 0.415,0 0.752,0.337 0.752,0.753 v 49.233 c -0.013,0.956 -0.226,1.318 -0.716,1.868 z"
     style="display:inline;fill:#ffffff;fill-opacity:1;fill-rule:nonzero;stroke:none"
     id="path42"
     inkscape:label="heavy chain left" /></g></g></svg>
